<mxfile host="app.diagrams.net" agent="Mozilla/5.0 (Windows NT 10.0; Win64; x64) AppleWebKit/537.36 (KHTML, like Gecko) Chrome/130.0.0.0 Safari/537.36 Edg/130.0.0.0" version="24.8.0">
  <diagram name="第 1 页" id="bqoMwQtUXiUCIlyM8fCn">
    <mxGraphModel dx="963" dy="641" grid="1" gridSize="10" guides="1" tooltips="1" connect="1" arrows="1" fold="1" page="1" pageScale="1" pageWidth="827" pageHeight="1169" math="0" shadow="0">
      <root>
        <mxCell id="0" />
        <mxCell id="1" parent="0" />
        <mxCell id="bi01-xKooW9rm9No69DG-17" value="" style="rounded=0;whiteSpace=wrap;html=1;" vertex="1" parent="1">
          <mxGeometry x="5" y="180" width="615" height="260" as="geometry" />
        </mxCell>
        <mxCell id="bi01-xKooW9rm9No69DG-4" value="" style="edgeStyle=orthogonalEdgeStyle;rounded=0;orthogonalLoop=1;jettySize=auto;html=1;" edge="1" parent="1" source="bi01-xKooW9rm9No69DG-2" target="bi01-xKooW9rm9No69DG-3">
          <mxGeometry relative="1" as="geometry" />
        </mxCell>
        <mxCell id="bi01-xKooW9rm9No69DG-5" value="&lt;b&gt;快销+&lt;/b&gt;" style="edgeLabel;html=1;align=center;verticalAlign=middle;resizable=0;points=[];" vertex="1" connectable="0" parent="bi01-xKooW9rm9No69DG-4">
          <mxGeometry x="-0.1707" y="-2" relative="1" as="geometry">
            <mxPoint x="14" y="-2" as="offset" />
          </mxGeometry>
        </mxCell>
        <mxCell id="bi01-xKooW9rm9No69DG-2" value="用户" style="shape=umlActor;verticalLabelPosition=bottom;verticalAlign=top;html=1;outlineConnect=0;" vertex="1" parent="1">
          <mxGeometry x="50" y="280" width="30" height="60" as="geometry" />
        </mxCell>
        <mxCell id="bi01-xKooW9rm9No69DG-13" style="rounded=0;orthogonalLoop=1;jettySize=auto;html=1;exitX=1;exitY=0.5;exitDx=0;exitDy=0;entryX=0;entryY=0.5;entryDx=0;entryDy=0;" edge="1" parent="1" source="bi01-xKooW9rm9No69DG-3" target="bi01-xKooW9rm9No69DG-10">
          <mxGeometry relative="1" as="geometry" />
        </mxCell>
        <mxCell id="bi01-xKooW9rm9No69DG-15" value="95%" style="edgeLabel;html=1;align=center;verticalAlign=middle;resizable=0;points=[];" vertex="1" connectable="0" parent="bi01-xKooW9rm9No69DG-13">
          <mxGeometry x="0.0692" y="1" relative="1" as="geometry">
            <mxPoint as="offset" />
          </mxGeometry>
        </mxCell>
        <mxCell id="bi01-xKooW9rm9No69DG-14" style="rounded=0;orthogonalLoop=1;jettySize=auto;html=1;exitX=1;exitY=0.5;exitDx=0;exitDy=0;entryX=0;entryY=0.5;entryDx=0;entryDy=0;" edge="1" parent="1" source="bi01-xKooW9rm9No69DG-3" target="bi01-xKooW9rm9No69DG-11">
          <mxGeometry relative="1" as="geometry" />
        </mxCell>
        <mxCell id="bi01-xKooW9rm9No69DG-16" value="5%" style="edgeLabel;html=1;align=center;verticalAlign=middle;resizable=0;points=[];" vertex="1" connectable="0" parent="bi01-xKooW9rm9No69DG-14">
          <mxGeometry x="-0.1105" y="1" relative="1" as="geometry">
            <mxPoint as="offset" />
          </mxGeometry>
        </mxCell>
        <mxCell id="bi01-xKooW9rm9No69DG-3" value="网关&lt;br&gt;Router" style="whiteSpace=wrap;html=1;verticalAlign=middle;fontStyle=1;fillColor=#f5f5f5;fontColor=#333333;strokeColor=#666666;" vertex="1" parent="1">
          <mxGeometry x="240" y="280" width="120" height="60" as="geometry" />
        </mxCell>
        <mxCell id="bi01-xKooW9rm9No69DG-10" value="Dcloud V1" style="rounded=0;whiteSpace=wrap;html=1;fillColor=#dae8fc;strokeColor=#6c8ebf;" vertex="1" parent="1">
          <mxGeometry x="440" y="220" width="120" height="60" as="geometry" />
        </mxCell>
        <mxCell id="bi01-xKooW9rm9No69DG-11" value="Dcloud V2" style="rounded=0;whiteSpace=wrap;html=1;fillColor=#d5e8d4;strokeColor=#82b366;" vertex="1" parent="1">
          <mxGeometry x="440" y="340" width="120" height="60" as="geometry" />
        </mxCell>
        <mxCell id="bi01-xKooW9rm9No69DG-12" value="&lt;font style=&quot;font-size: 8px;&quot;&gt;head头蓝绿标识&lt;/font&gt;" style="text;html=1;align=center;verticalAlign=middle;whiteSpace=wrap;rounded=0;fontStyle=1" vertex="1" parent="1">
          <mxGeometry x="120" y="270" width="70" height="30" as="geometry" />
        </mxCell>
      </root>
    </mxGraphModel>
  </diagram>
</mxfile>
